<?xml version="1.0" standalone="no"?>
<!DOCTYPE svg PUBLIC "-//W3C//DTD SVG 1.0//EN" "http://www.w3.org/TR/2001/REC-SVG-20010904/DTD/svg10.dtd">
<svg xmlns="http://www.w3.org/2000/svg" xmlns:xlink="http://www.w3.org/1999/xlink" id="body_1" width="410" height="307">

<g transform="matrix(0.4003906 0 0 0.3997396 0 0)">
    <path transform="matrix(1.881212 0 0 1.881212 115.3939 0)"  d="M92.97071 149.0827C 96.95554 149.0827 99.9966 150.5509 102.1988 153.487C 104.4009 156.3184 105.4495 160.4081 105.4495 165.6512C 105.4495 171.1042 104.1912 175.5085 101.7793 178.4447C 99.26257 181.4858 95.69718 183.0587 91.18802 183.0587L91.18802 183.0587L91.08315 183.0587L91.08315 175.4037L91.18802 175.4037C 94.01935 175.4037 96.11663 174.4599 97.37499 172.8869C 98.63336 171.2091 99.26255 168.6923 99.26255 165.4416C 99.26255 162.82 98.73824 160.7227 97.79446 159.3595C 96.85069 157.9962 95.38258 157.2622 93.49503 157.2622C 91.92207 157.2622 90.76855 157.8913 89.92966 159.0449C 89.09074 160.1984 88.3567 162.4006 87.7275 165.5465L87.7275 165.5465L86.99345 169.007C 86.15454 173.3064 84.68645 176.662 82.69402 178.8642C 80.59674 181.0663 77.97514 182.115 74.61949 182.115C 71.15897 182.115 68.32764 180.7518 66.23036 178.1302C 64.13308 175.5086 63.08444 171.7335 63.08444 167.0146C 63.08444 161.6665 64.23795 157.5768 66.54496 154.8504C 68.85197 152.1239 72.10276 150.6558 76.19245 150.4461L76.19245 150.4461L76.29733 150.4461L76.29733 157.9963L76.19245 157.9963C 73.88544 158.1012 72.20761 158.9401 71.15897 160.3033C 70.11033 161.6665 69.48114 163.8687 69.48114 166.9098C 69.48114 169.2168 69.90059 170.9995 70.73951 172.2578C 71.57842 173.5162 72.83679 174.1453 74.40975 174.1453C 75.98271 174.1453 77.24107 173.621 78.07999 172.4675C 78.91891 171.3141 79.65295 169.2168 80.28214 166.2805L80.28214 166.2805L81.01619 162.7151C 81.95996 157.9962 83.42807 154.5358 85.31563 152.4385C 86.99345 150.2362 89.61506 149.0827 92.97071 149.0827zM85.1059 370.8703C 83.21835 372.9676 81.75025 376.4281 80.80647 381.147L80.80647 381.147L80.07242 384.7124C 79.44323 387.6486 78.70918 389.7458 77.87027 390.8994C 77.03135 392.0529 75.77299 392.5772 74.20003 392.5772C 72.62706 392.5772 71.3687 391.948 70.52979 390.6896C 69.69086 389.4312 69.27142 387.6486 69.27142 385.3416C 69.27142 382.3005 69.79574 380.0984 70.94925 378.7352C 71.99789 377.3719 73.78058 376.6379 75.98273 376.4281L75.98273 376.4281L76.0876 376.4281L76.0876 368.8778L75.98273 368.8778C 71.89304 368.9827 68.64224 370.5557 66.33524 373.2822C 64.02823 376.0086 62.87471 380.0983 62.87471 385.4464C 62.87471 390.1653 63.92336 393.8355 66.02064 396.5619C 68.11792 399.1835 70.94925 400.5468 74.40977 400.5468C 77.66056 400.5468 80.38702 399.3933 82.4843 397.296C 84.58158 395.0939 85.94482 391.843 86.78373 387.4388L86.78373 387.4388L87.51778 383.9782C 88.14697 380.8323 88.88101 378.6302 89.71993 377.4767C 90.55885 376.3232 91.71234 375.6939 93.2853 375.6939C 95.17286 375.6939 96.64095 376.428 97.58474 377.7912C 98.52851 379.1544 99.05283 381.2517 99.05283 383.8734C 99.05283 387.1241 98.42364 389.6409 97.16527 391.3187C 95.90691 392.9965 93.80962 393.8354 90.97829 393.8354L90.97829 393.8354L90.87343 393.8354L90.87343 401.4905L90.97829 401.4905C 95.59231 401.4905 99.1577 399.9175 101.5696 396.8765C 104.0863 393.8354 105.2398 389.5359 105.2398 384.083C 105.2398 378.9446 104.0863 374.855 101.989 371.9188C 99.78687 368.9826 96.64095 367.5145 92.76098 367.5145C 89.61506 367.7244 86.99345 368.773 85.1059 370.8703zM104.5058 271.7737L104.5058 279.8483C 103.3522 280.5823 101.6744 280.8969 99.68201 280.8969L99.68201 280.8969L95.27772 281.1067C 92.86584 281.2115 91.08315 281.7358 90.13938 282.7845C 89.19561 283.7283 88.67129 285.4061 88.67129 287.6082L88.67129 287.6082L88.67129 297.5703L104.5058 297.5703L104.5058 305.3302L63.81849 305.3302L63.81849 286.8742C 63.81849 285.9304 63.81849 285.0915 63.92336 284.2526C 63.92336 284.5672 63.92336 284.7769 63.92336 285.0915C 64.13308 281.9456 64.86713 279.3239 66.23036 277.3315C 66.1255 277.4363 66.02064 277.6461 65.91577 277.751C 66.23036 277.2267 66.54496 276.8072 66.85954 276.3878C 68.95682 273.871 71.78815 272.6127 75.24866 272.6127C 80.07242 272.6127 83.3232 274.8148 84.89616 279.2191C 85.52535 277.2267 86.57399 275.7586 87.93721 274.9197C 89.30045 273.9759 91.188 273.5565 93.59987 273.4516L93.59987 273.4516L99.68198 273.137C 101.6744 273.032 103.2474 272.6126 104.5058 271.7737zM76.19245 280.5823C 74.30489 280.5823 72.83681 281.2114 71.78816 282.365C 70.73952 283.6234 70.2152 285.3011 70.2152 287.6082L70.2152 287.6082L70.2152 297.5703L82.4843 297.5703L82.4843 287.3984C 82.4843 285.3011 81.95998 283.6234 80.91134 282.365C 79.86269 281.1066 78.28973 280.5823 76.19245 280.5823zM63.81849 255.4149L104.5058 255.4149L104.5058 247.6549L63.81849 247.6549L63.81849 255.4149zM70.84438 198.6834L63.81849 198.6834L63.81849 228.6745L104.5058 228.6745L104.5058 198.6834L97.47987 198.6834L97.47987 220.9146L87.09833 220.9146L87.09833 200.7807L80.38702 200.7807L80.38702 220.9146L70.84438 220.9146L70.84438 198.6834zM70.84438 322.0036L63.81849 322.0036L63.81849 352.0996L104.5058 352.0996L104.5058 322.1085L97.47987 322.1085L97.47987 344.3397L87.09833 344.3397L87.09833 324.2058L80.38702 324.2058L80.38702 344.3397L70.84438 344.3397L70.84438 322.0036zM122.2278 401.5955L176.2328 401.5955L217.2347 345.1786L190.2846 308.0567L122.2278 401.5955zM358.8012 150.341L304.7962 150.341L271.2397 196.4813L298.1898 233.6032L358.8012 150.341zM183.6781 150.341L129.6731 150.341L312.2415 401.5954L366.2466 401.5954L183.6781 150.341z" stroke="none" fill="#000000" fill-rule="nonzero" />
    <path transform="matrix(1.881212 0 0 1.881212 115.3939 0)"  d="M108.3846 117.9462L89.38448 117.9462L56.71363 72.76314L23.81107 117.9462L4.810997 117.9462L46.98189 59.78748L8.286619 6.262896L27.28669 6.262896L56.71363 46.81183L86.14057 6.262896L105.1406 6.262896L66.21368 59.78749L108.3846 117.9462zM207.0922 86.20222C 207.0922 95.93396 203.8483 103.8121 197.3605 109.373C 190.8727 114.934 181.6043 117.9462 169.5555 117.9462L169.5555 117.9462L117.4212 117.9462L117.4212 68.12897L92.39669 68.12897L102.8236 53.76307L117.4212 53.76307L117.4212 6.262896L167.4701 6.262896C 178.8239 6.262896 187.397 9.043387 193.4214 14.37268C 199.4459 19.70198 202.4581 26.88493 202.4581 35.45812C 202.4581 46.1167 197.5922 54.45819 187.8605 59.78748C 194.1166 62.10456 198.7507 65.81189 201.9946 70.21436C 205.4703 74.61681 207.0922 80.1778 207.0922 86.20222zM134.3359 53.99478L166.3116 53.99478C 172.7994 53.99478 177.6653 52.60453 180.9092 49.59232C 184.1531 46.81183 185.7751 42.40937 185.7751 36.61666C 185.7751 31.7508 184.1531 27.81175 180.6775 25.03126C 177.4336 22.25076 172.5677 20.8605 166.3116 20.8605L166.3116 20.8605L134.3359 20.8605L134.3359 53.99478zM189.9458 85.73879C 189.9458 79.94609 188.0922 75.31193 184.6165 72.53143C 181.1409 69.51922 175.8116 68.12897 168.8604 68.12897L168.8604 68.12897L134.3359 68.12897L134.3359 103.1169L168.6287 103.1169C 175.3482 103.1169 180.6775 101.495 184.3848 98.71449C 188.0922 95.70223 189.9458 91.29979 189.9458 85.73879zM322.0195 62.10456C 322.0195 70.67776 320.861 78.78754 318.3122 85.73879C 315.7633 92.69006 312.056 98.94617 307.1902 104.2755C 302.0926 109.6048 296.2999 113.7755 289.812 116.3243C 283.3242 119.1048 275.9095 120.2633 267.5681 120.2633C 259.4583 120.2633 251.8119 118.8731 245.3241 116.3243C 238.8362 113.5438 233.0435 109.6048 227.946 104.2755C 222.8484 98.94617 219.141 92.69006 216.5923 85.73881C 214.0435 78.78757 212.8849 70.67778 212.8849 62.10458C 212.8849 53.53139 214.0435 45.4216 216.5923 38.47036C 219.141 31.51911 222.8484 25.03127 227.946 19.702C 232.8118 14.3727 238.6045 10.43367 245.3241 7.653177C 251.8119 5.10439 259.4583 3.714145 267.5681 3.714145C 275.6779 3.714145 283.0925 5.104391 289.812 7.653177C 296.2999 10.20196 302.3243 14.37272 307.1902 19.702C 312.056 25.03127 315.9951 31.51911 318.3122 38.47036C 320.6292 45.4216 322.0195 53.29965 322.0195 62.10456zM230.4948 62.10456C 230.4948 75.31193 233.9704 85.73879 240.6899 93.38515C 247.4095 101.0315 256.2144 104.9706 267.5681 104.9706C 278.6901 104.9706 287.7267 101.0315 294.4462 93.38515C 301.1658 85.73878 304.4097 75.3119 304.4097 62.10455C 304.4097 48.89719 301.1658 38.2386 294.4462 30.59224C 287.7267 22.94588 278.69 19.00683 267.5681 19.00683C 256.4461 19.00683 247.4095 22.94586 240.6899 30.59224C 233.9704 38.47032 230.4948 48.89719 230.4948 62.10456zM375.7758 59.78748L414.7028 6.262894L395.7027 6.262894L366.2758 46.81183L336.8488 6.262896L317.8488 6.262896L356.7758 59.78749L314.6048 117.9462L333.6049 117.9462L366.2758 72.76315L399.1783 117.9462L418.1784 117.9462L375.7758 59.78748z" stroke="none" fill="#000000" fill-rule="nonzero" />
</g>
</svg>